<svg width="18" height="14" viewBox="0 0 18 14" fill="none" xmlns="http://www.w3.org/2000/svg">
<path d="M4.68201 4.97424e-05C3.74226 -0.015152 2.8257 0.292192 2.08508 0.870853C1.34447 1.44951 0.824559 2.26453 0.612011 3.18005C0.397888 4.21903 0.605249 5.30052 1.18848 6.18662C1.77171 7.07272 2.68304 7.69085 3.72201 7.90505L3.74901 7.91005C4.01822 7.96999 4.29321 8.00017 4.56901 8.00005V14H6.56901V2.00005H8.56901V14H10.569V2.00005H12.569V4.97424e-05H4.68201ZM2.53201 4.00005C2.53201 3.46962 2.74272 2.96091 3.1178 2.58584C3.49287 2.21076 4.00158 2.00005 4.53201 2.00005V6.00005C4.00158 6.00005 3.49287 5.78934 3.1178 5.41426C2.74272 5.03919 2.53201 4.53048 2.53201 4.00005ZM17.472 12.491C17.472 12.7877 17.384 13.0777 17.2192 13.3244C17.0544 13.5711 16.8201 13.7633 16.546 13.8769C16.2719 13.9904 15.9703 14.0201 15.6794 13.9622C15.3884 13.9043 15.1211 13.7615 14.9114 13.5517C14.7016 13.3419 14.5587 13.0747 14.5008 12.7837C14.443 12.4927 14.4727 12.1911 14.5862 11.917C14.6997 11.6429 14.892 11.4087 15.1387 11.2438C15.3853 11.079 15.6753 10.991 15.972 10.991C16.3698 10.991 16.7514 11.1491 17.0327 11.4304C17.314 11.7117 17.472 12.0932 17.472 12.491ZM17.472 8.49105C17.472 8.78772 17.384 9.07773 17.2192 9.3244C17.0544 9.57108 16.8201 9.76334 16.546 9.87687C16.2719 9.9904 15.9703 10.0201 15.6794 9.96223C15.3884 9.90435 15.1211 9.76149 14.9114 9.55171C14.7016 9.34193 14.5587 9.07466 14.5008 8.78368C14.443 8.49271 14.4727 8.19111 14.5862 7.91702C14.6997 7.64294 14.892 7.40867 15.1387 7.24384C15.3853 7.07902 15.6753 6.99105 15.972 6.99105C16.3698 6.99105 16.7514 7.14909 17.0327 7.43039C17.314 7.71169 17.472 8.09323 17.472 8.49105ZM17.472 4.49105C17.472 4.78772 17.384 5.07773 17.2192 5.3244C17.0544 5.57108 16.8201 5.76334 16.546 5.87687C16.2719 5.9904 15.9703 6.02011 15.6794 5.96223C15.3884 5.90435 15.1211 5.76149 14.9114 5.55171C14.7016 5.34193 14.5587 5.07466 14.5008 4.78368C14.443 4.49271 14.4727 4.19111 14.5862 3.91702C14.6997 3.64294 14.892 3.40867 15.1387 3.24385C15.3853 3.07902 15.6753 2.99105 15.972 2.99105C16.3698 2.99105 16.7514 3.14909 17.0327 3.43039C17.314 3.71169 17.472 4.09323 17.472 4.49105Z" fill="black"/>
</svg>
