<svg width="18" height="18" viewBox="0 0 18 18" fill="none" xmlns="http://www.w3.org/2000/svg">
<path d="M8.991 1.00278e-05C7.21136 0.00178968 5.47218 0.531143 3.99333 1.52116C2.51447 2.51117 1.36232 3.9174 0.682508 5.56209C0.00269908 7.20678 -0.174247 9.0161 0.174035 10.7613C0.522318 12.5066 1.38019 14.1094 2.63922 15.3671C3.89825 16.6249 5.50192 17.4812 7.2475 17.8277C8.99308 18.1743 10.8022 17.9955 12.4462 17.3141C14.0902 16.6326 15.4953 15.4791 16.4839 13.9992C17.4724 12.5194 18 10.7797 18 9.00001C18.0006 7.81719 17.7679 6.64587 17.3152 5.55309C16.8626 4.46031 16.1989 3.46752 15.3621 2.63156C14.5253 1.7956 13.5318 1.13288 12.4386 0.681321C11.3454 0.229765 10.1738 -0.00175601 8.991 1.00278e-05ZM9 16C7.61553 16 6.26216 15.5895 5.11101 14.8203C3.95987 14.0511 3.06266 12.9579 2.53285 11.6788C2.00303 10.3997 1.86441 8.99224 2.13451 7.63438C2.4046 6.27651 3.07129 5.02923 4.05026 4.05026C5.02922 3.07129 6.2765 2.40461 7.63437 2.13451C8.99224 1.86442 10.3997 2.00304 11.6788 2.53285C12.9579 3.06267 14.0511 3.95987 14.8203 5.11102C15.5895 6.26216 16 7.61554 16 9.00001C16.0003 9.91933 15.8194 10.8297 15.4677 11.6791C15.116 12.5285 14.6004 13.3003 13.9503 13.9503C13.3003 14.6004 12.5285 15.116 11.6791 15.4677C10.8297 15.8194 9.91933 16.0003 9 16ZM12.105 10.8H13.608C13.2464 11.728 12.6131 12.5252 11.7909 13.0873C10.9687 13.6493 9.99595 13.95 9 13.95C8.00406 13.95 7.03131 13.6493 6.20912 13.0873C5.38692 12.5252 4.75358 11.728 4.392 10.8H5.895C6.20819 11.3469 6.66027 11.8014 7.2055 12.1175C7.75073 12.4335 8.36978 12.6 9 12.6C9.63023 12.6 10.2493 12.4335 10.7945 12.1175C11.3397 11.8014 11.7918 11.3469 12.105 10.8ZM4.5 6.75001C4.5 6.48301 4.57918 6.222 4.72752 5.99999C4.87586 5.77798 5.0867 5.60495 5.33338 5.50277C5.58006 5.40059 5.8515 5.37386 6.11338 5.42595C6.37525 5.47804 6.6158 5.60661 6.8046 5.79542C6.9934 5.98422 7.12197 6.22476 7.17406 6.48664C7.22615 6.74851 7.19942 7.01995 7.09724 7.26663C6.99506 7.51331 6.82203 7.72415 6.60002 7.87249C6.37802 8.02083 6.11701 8.10001 5.85 8.10001C5.49196 8.10001 5.14858 7.95778 4.89541 7.7046C4.64224 7.45143 4.5 7.10805 4.5 6.75001ZM10.8 6.75001C10.8 6.48301 10.8792 6.222 11.0275 5.99999C11.1759 5.77798 11.3867 5.60495 11.6334 5.50277C11.8801 5.40059 12.1515 5.37386 12.4134 5.42595C12.6753 5.47804 12.9158 5.60661 13.1046 5.79542C13.2934 5.98422 13.422 6.22476 13.4741 6.48664C13.5262 6.74851 13.4994 7.01995 13.3972 7.26663C13.2951 7.51331 13.122 7.72415 12.9 7.87249C12.678 8.02083 12.417 8.10001 12.15 8.10001C11.792 8.10001 11.4486 7.95778 11.1954 7.7046C10.9422 7.45143 10.8 7.10805 10.8 6.75001Z" fill="black"/>
</svg>
