<svg width="36" height="26" viewBox="0 0 36 26" fill="none" xmlns="http://www.w3.org/2000/svg">
<path fill-rule="evenodd" clip-rule="evenodd" d="M23.2965 9.8285C23.4013 9.933 23.4844 10.0571 23.5411 10.1938C23.5978 10.3305 23.627 10.477 23.627 10.625C23.627 10.773 23.5978 10.9195 23.5411 11.0562C23.4844 11.1928 23.4013 11.317 23.2965 11.4215L16.5465 18.1715C16.442 18.2763 16.3179 18.3594 16.1812 18.4161C16.0445 18.4728 15.898 18.502 15.75 18.502C15.602 18.502 15.4555 18.4728 15.3188 18.4161C15.1822 18.3594 15.058 18.2763 14.9535 18.1715L11.5785 14.7965C11.4739 14.6919 11.3909 14.5677 11.3343 14.4311C11.2777 14.2944 11.2486 14.1479 11.2486 14C11.2486 13.8521 11.2777 13.7056 11.3343 13.5689C11.3909 13.4323 11.4739 13.3081 11.5785 13.2035C11.6831 13.0989 11.8073 13.0159 11.944 12.9593C12.0806 12.9027 12.2271 12.8736 12.375 12.8736C12.5229 12.8736 12.6694 12.9027 12.8061 12.9593C12.9427 13.0159 13.0669 13.0989 13.1715 13.2035L15.75 15.7842L21.7035 9.8285C21.808 9.72373 21.9322 9.64061 22.0688 9.58389C22.2055 9.52718 22.352 9.49799 22.5 9.49799C22.648 9.49799 22.7945 9.52718 22.9312 9.58389C23.0679 9.64061 23.192 9.72373 23.2965 9.8285Z" fill="white"/>
<path d="M9.9135 3.5195C12.1623 1.5803 15.0305 0.509312 18 0.5C24.0525 0.5 29.0768 5 29.6235 10.8027C33.2055 11.309 36 14.3082 36 17.9893C36 22.0302 32.6295 25.25 28.5457 25.25H8.50725C3.843 25.25 0 21.5735 0 16.9655C0 12.9987 2.8485 9.71375 6.6195 8.88125C6.94125 6.9395 8.19 5.0045 9.9135 3.5195ZM11.3827 5.22275C9.6795 6.692 8.7885 8.46275 8.7885 9.84875V10.8568L7.78725 10.967C4.644 11.3112 2.25 13.892 2.25 16.9655C2.25 20.2663 5.0175 23 8.50725 23H28.5457C31.455 23 33.75 20.723 33.75 17.9893C33.75 15.2532 31.455 12.9762 28.5457 12.9762H27.4207V11.8512C27.423 6.85625 23.238 2.75 18 2.75C15.5697 2.75971 13.2229 3.63748 11.3827 5.225V5.22275Z" fill="#884CB2"/>
</svg>
