<svg width="18" height="14" viewBox="0 0 18 14" fill="none" xmlns="http://www.w3.org/2000/svg">
<path d="M10.55 14H12.55L7.55005 0H5.55005L0.550049 14H2.55005L3.95005 10H9.05005L10.55 14ZM4.65005 8L6.55005 2.8L8.45005 8H4.65005ZM17.4501 12.5C17.4501 12.7967 17.3621 13.0867 17.1973 13.3334C17.0324 13.58 16.7982 13.7723 16.5241 13.8858C16.25 13.9993 15.9484 14.0291 15.6574 13.9712C15.3664 13.9133 15.0992 13.7704 14.8894 13.5607C14.6796 13.3509 14.5367 13.0836 14.4789 12.7926C14.421 12.5017 14.4507 12.2001 14.5642 11.926C14.6778 11.6519 14.87 11.4176 15.1167 11.2528C15.3634 11.088 15.6534 11 15.95 11C16.3479 11 16.7294 11.158 17.0107 11.4393C17.292 11.7206 17.4501 12.1022 17.4501 12.5ZM17.4501 8.5C17.4501 8.79667 17.3621 9.08668 17.1973 9.33335C17.0324 9.58003 16.7982 9.77229 16.5241 9.88582C16.25 9.99935 15.9484 10.0291 15.6574 9.97118C15.3664 9.9133 15.0992 9.77044 14.8894 9.56066C14.6796 9.35088 14.5367 9.08361 14.4789 8.79264C14.421 8.50166 14.4507 8.20006 14.5642 7.92597C14.6778 7.65189 14.87 7.41762 15.1167 7.2528C15.3634 7.08797 15.6534 7 15.95 7C16.3479 7 16.7294 7.15804 17.0107 7.43934C17.292 7.72064 17.4501 8.10218 17.4501 8.5ZM17.4501 4.5C17.4501 4.79667 17.3621 5.08668 17.1973 5.33335C17.0324 5.58003 16.7982 5.77229 16.5241 5.88582C16.25 5.99935 15.9484 6.02906 15.6574 5.97118C15.3664 5.9133 15.0992 5.77044 14.8894 5.56066C14.6796 5.35088 14.5367 5.08361 14.4789 4.79264C14.421 4.50166 14.4507 4.20006 14.5642 3.92597C14.6778 3.65189 14.87 3.41762 15.1167 3.2528C15.3634 3.08797 15.6534 3 15.95 3C16.3479 3 16.7294 3.15804 17.0107 3.43934C17.292 3.72064 17.4501 4.10218 17.4501 4.5Z" fill="black"/>
</svg>
